<?xml version="1.0" encoding="utf-8"?>
<!-- Generator: Adobe Illustrator 19.2.0, SVG Export Plug-In . SVG Version: 6.00 Build 0)  -->
<svg version="1.1" id="Layer_1" xmlns="http://www.w3.org/2000/svg" xmlns:xlink="http://www.w3.org/1999/xlink" x="0px" y="0px"
	 viewBox="0 0 216 42" style="enable-background:new 0 0 216 42;" xml:space="preserve">
<style type="text/css">
	.st0{fill:url(#SVGID_1_);}
	.st1{fill:url(#SVGID_2_);}
	.st2{fill:url(#SVGID_3_);}
</style>
<g>
	<linearGradient id="SVGID_1_" gradientUnits="userSpaceOnUse" x1="108.1508" y1="41.1798" x2="108.1508" y2="1.0469">
		<stop  offset="0" style="stop-color:#F0CB8D"/>
		<stop  offset="1" style="stop-color:#F0D49C"/>
	</linearGradient>
	<path class="st0" d="M211.8,10.2L208.5,1H7.8l-3.2,9.1l3.7,11L4.6,32.1l3.2,9.1h200.8l3.2-9.1L208,21.1L211.8,10.2z M8.5,2.1h199.3
		l2.9,8.1l0,0l-2.9-8.1L8.5,2.1l-2.9,8.1l0,0L8.5,2.1z M9.4,21.2L9.4,21.2L5.6,32.1l0,0L9.4,21.2z M210.7,32.1L210.7,32.1l-3.7-10.9
		l0,0L210.7,32.1z"/>
	<linearGradient id="SVGID_2_" gradientUnits="userSpaceOnUse" x1="212.562" y1="25.2622" x2="212.562" y2="16.9956">
		<stop  offset="0" style="stop-color:#F0CB8D"/>
		<stop  offset="1" style="stop-color:#F0D49C"/>
	</linearGradient>
	<polygon class="st1" points="212.6,17 211.2,21.1 212.6,25.3 213.9,21.1 	"/>
	<linearGradient id="SVGID_3_" gradientUnits="userSpaceOnUse" x1="3.2475" y1="25.2622" x2="3.2475" y2="16.9956">
		<stop  offset="0" style="stop-color:#F0CB8D"/>
		<stop  offset="1" style="stop-color:#F0D49C"/>
	</linearGradient>
	<polygon class="st2" points="3.3,17 1.9,21.1 3.3,25.3 4.6,21.1 	"/>
</g>
</svg>
