<?xml version="1.0" encoding="utf-8"?>
<!-- Generator: Adobe Illustrator 21.1.0, SVG Export Plug-In . SVG Version: 6.00 Build 0)  -->
<svg version="1.1" id="Layer_1" xmlns="http://www.w3.org/2000/svg" xmlns:xlink="http://www.w3.org/1999/xlink" x="0px" y="0px"
	 viewBox="0 0 109.1 19.3" style="enable-background:new 0 0 109.1 19.3;" xml:space="preserve">
<style type="text/css">
	.st0{fill:#EAC27D;}
</style>
<path class="st0" d="M6.2,8.5C7.9,8.5,9.6,8,11,7.2c0.2-0.1,0.3-0.4,0.2-0.7c-0.1-0.2-0.3-0.4-0.6-0.4c0,0-0.4,0.1-1,0.1
	c-1,0-2.3-0.1-3.3-0.8c-1.5-1-0.9-2-0.9-2C5.6,3.3,6,2.9,6.8,2.9c0.1,0,0.3,0,0.4-0.2c0.1-0.1,0.1-0.3,0.1-0.5c0,0-0.3-1-1.3-1.7
	C5.5,0.2,4.9,0,4.3,0C3.1,0,2,0.6,1.4,1.6C0.9,2.5,0.7,3.5,0.8,4.5c0.2,1.1,0.9,2.2,2.1,3C3.7,8.1,4.9,8.5,6.2,8.5L6.2,8.5z
	 M2.2,2.2c0.6-1,1.6-1.1,2-1.1S5,1.2,5.3,1.4c0.2,0.2,0.4,0.4,0.6,0.5C5.3,2.1,4.8,2.4,4.6,2.7C4.4,3,4.2,3.5,4.3,4.1
	c0.1,0.6,0.4,1.4,1.5,2.1C6.5,6.7,7.3,6.9,8,7.1C7.4,7.2,6.8,7.3,6.2,7.3l0,0C5,7.3,4,7,3.4,6.6C1.5,5.3,1.4,3.4,2.2,2.2z"/>
<path class="st0" d="M11.1,12.1c-1.4-0.8-3.2-1.2-4.9-1.2c-1.4,0-2.6,0.3-3.4,0.9c-1.2,0.8-1.9,1.8-2.1,3c-0.2,1,0,2,0.6,2.9
	c0.6,1,1.7,1.6,2.9,1.6c0.7,0,1.3-0.2,1.7-0.5c1-0.7,1.3-1.6,1.3-1.7c0-0.2,0-0.3-0.1-0.5c-0.1-0.1-0.3-0.2-0.4-0.2
	C6,16.4,5.5,16,5.5,16s-0.6-1,0.9-2c1-0.7,2.3-0.8,3.3-0.8c0.6,0,1,0.1,1,0.1c0.3,0,0.5-0.1,0.6-0.4C11.4,12.5,11.3,12.3,11.1,12.1z
	 M5.8,13c-1.1,0.8-1.4,1.6-1.5,2.1c-0.1,0.6,0.1,1.1,0.3,1.4s0.6,0.6,1.3,0.8c-0.1,0.2-0.3,0.4-0.6,0.5C5,18,4.6,18.1,4.2,18.1
	c-0.4,0-1.4-0.1-2-1.1c-0.8-1.2-0.7-3,1.2-4.4C4,12.2,5,11.9,6.2,11.9c0.6,0,1.2,0.1,1.8,0.2C7.3,12.3,6.5,12.6,5.8,13z"/>
<circle class="st0" cx="0.6" cy="9.4" r="0.6"/>
<circle class="st0" cx="2.6" cy="9.4" r="0.6"/>
<path class="st0" d="M98.5,9.4c0-0.3-0.2-0.5-0.5-0.5H4.5C4.2,8.9,4,9.1,4,9.4s0.2,0.5,0.5,0.5h93.4C98.2,9.9,98.5,9.7,98.5,9.4z"/>
<circle class="st0" cx="105.2" cy="9.7" r="0.6"/>
<circle class="st0" cx="108.5" cy="9.7" r="0.6"/>
<circle class="st0" cx="101.9" cy="9.7" r="0.6"/>
</svg>
